<mxfile host="app.diagrams.net" agent="Mozilla/5.0 (Macintosh; Intel Mac OS X 10_15_7) AppleWebKit/537.36 (KHTML, like Gecko) Chrome/129.0.0.0 Safari/537.36" version="24.8.0">
  <diagram name="第 1 页" id="ssA97mYQEhC7tLdyT9QT">
    <mxGraphModel dx="1026" dy="650" grid="1" gridSize="10" guides="1" tooltips="1" connect="1" arrows="1" fold="1" page="1" pageScale="1" pageWidth="827" pageHeight="1169" math="0" shadow="0">
      <root>
        <mxCell id="0" />
        <mxCell id="1" parent="0" />
        <mxCell id="zffrPdRbodNsMmRM1yAd-3" value="" style="edgeStyle=orthogonalEdgeStyle;rounded=0;orthogonalLoop=1;jettySize=auto;html=1;" parent="1" source="zffrPdRbodNsMmRM1yAd-1" target="zffrPdRbodNsMmRM1yAd-2" edge="1">
          <mxGeometry relative="1" as="geometry" />
        </mxCell>
        <mxCell id="zffrPdRbodNsMmRM1yAd-1" value="标签默认新建" style="ellipse;whiteSpace=wrap;html=1;" parent="1" vertex="1">
          <mxGeometry x="230" y="150" width="120" height="40" as="geometry" />
        </mxCell>
        <mxCell id="zffrPdRbodNsMmRM1yAd-5" value="" style="edgeStyle=orthogonalEdgeStyle;rounded=0;orthogonalLoop=1;jettySize=auto;html=1;" parent="1" source="zffrPdRbodNsMmRM1yAd-2" target="zffrPdRbodNsMmRM1yAd-4" edge="1">
          <mxGeometry relative="1" as="geometry" />
        </mxCell>
        <mxCell id="zffrPdRbodNsMmRM1yAd-2" value="校验参数完整" style="rhombus;whiteSpace=wrap;html=1;" parent="1" vertex="1">
          <mxGeometry x="245" y="250" width="90" height="60" as="geometry" />
        </mxCell>
        <mxCell id="zffrPdRbodNsMmRM1yAd-7" value="" style="edgeStyle=orthogonalEdgeStyle;rounded=0;orthogonalLoop=1;jettySize=auto;html=1;" parent="1" source="zffrPdRbodNsMmRM1yAd-4" target="zffrPdRbodNsMmRM1yAd-6" edge="1">
          <mxGeometry relative="1" as="geometry" />
        </mxCell>
        <mxCell id="zffrPdRbodNsMmRM1yAd-4" value="校验标签是否已存在" style="rhombus;whiteSpace=wrap;html=1;" parent="1" vertex="1">
          <mxGeometry x="225" y="370" width="130" height="60" as="geometry" />
        </mxCell>
        <mxCell id="zffrPdRbodNsMmRM1yAd-9" value="" style="edgeStyle=orthogonalEdgeStyle;rounded=0;orthogonalLoop=1;jettySize=auto;html=1;" parent="1" source="zffrPdRbodNsMmRM1yAd-6" target="zffrPdRbodNsMmRM1yAd-8" edge="1">
          <mxGeometry relative="1" as="geometry" />
        </mxCell>
        <mxCell id="zffrPdRbodNsMmRM1yAd-6" value="写入标签基础信息表" style="shape=process;whiteSpace=wrap;html=1;backgroundOutline=1;" parent="1" vertex="1">
          <mxGeometry x="220" y="470" width="140" height="50" as="geometry" />
        </mxCell>
        <mxCell id="zffrPdRbodNsMmRM1yAd-11" value="" style="edgeStyle=orthogonalEdgeStyle;rounded=0;orthogonalLoop=1;jettySize=auto;html=1;" parent="1" source="zffrPdRbodNsMmRM1yAd-8" target="zffrPdRbodNsMmRM1yAd-10" edge="1">
          <mxGeometry relative="1" as="geometry" />
        </mxCell>
        <mxCell id="zffrPdRbodNsMmRM1yAd-8" value="写入标签规则表，版本为草稿" style="shape=process;whiteSpace=wrap;html=1;backgroundOutline=1;" parent="1" vertex="1">
          <mxGeometry x="230" y="567" width="120" height="35" as="geometry" />
        </mxCell>
        <mxCell id="zffrPdRbodNsMmRM1yAd-13" value="" style="edgeStyle=orthogonalEdgeStyle;rounded=0;orthogonalLoop=1;jettySize=auto;html=1;" parent="1" source="zffrPdRbodNsMmRM1yAd-10" target="zffrPdRbodNsMmRM1yAd-12" edge="1">
          <mxGeometry relative="1" as="geometry" />
        </mxCell>
        <mxCell id="zffrPdRbodNsMmRM1yAd-10" value="是否上线" style="rhombus;whiteSpace=wrap;html=1;" parent="1" vertex="1">
          <mxGeometry x="250" y="640" width="80" height="60.5" as="geometry" />
        </mxCell>
        <mxCell id="zffrPdRbodNsMmRM1yAd-12" value="写入标签评审表" style="shape=process;whiteSpace=wrap;html=1;backgroundOutline=1;" parent="1" vertex="1">
          <mxGeometry x="230" y="780.75" width="120" height="60" as="geometry" />
        </mxCell>
      </root>
    </mxGraphModel>
  </diagram>
</mxfile>
